<svg width="76" height="98" viewBox="0 0 76 98" fill="none" xmlns="http://www.w3.org/2000/svg">
<path d="M47.3752 3.5518C45.5246 2.96628 43.5935 2.55921 41.6041 2.35009C40.5581 2.23578 39.4927 2.17722 38.4161 2.17722C37.3396 2.17722 36.3241 2.23299 35.3003 2.34173C33.3082 2.54527 31.3799 2.94677 29.5265 3.52671C17.5904 7.25732 8.93652 18.3209 8.93652 31.5676C8.93652 32.7972 9.01145 34.0073 9.15572 35.1951C10.5375 46.543 18.3062 55.8835 28.7413 59.5109C29.0853 59.6336 29.4349 59.7479 29.7873 59.8511C32.5175 60.6903 35.4141 61.1392 38.4161 61.1392C41.4182 61.1392 44.2677 60.6959 46.9784 59.8706C47.3558 59.7591 47.7275 59.6392 48.0938 59.5081C58.2348 55.9811 65.8592 47.0588 67.5462 36.143C67.7792 34.6514 67.8985 33.1206 67.8985 31.562C67.8985 18.3404 59.278 7.29356 47.3752 3.54344M55.7904 34.8493C54.2616 43.0912 47.0672 49.334 38.4161 49.334C29.7651 49.334 22.5735 43.0912 21.0447 34.8493C20.8449 33.7898 20.7422 32.6913 20.7422 31.5732C20.7422 21.7615 28.6525 13.8124 38.4134 13.8124C48.1742 13.8124 56.0873 21.7615 56.0873 31.5732C56.0873 32.6913 55.9846 33.7898 55.7849 34.8493" fill="#6E39EE"/>
<path d="M47.3752 3.5518C45.5246 2.96628 43.5935 2.55921 41.6041 2.35009C40.5581 2.23578 39.4927 2.17722 38.4161 2.17722C37.3396 2.17722 36.3241 2.23299 35.3003 2.34173C33.3082 2.54527 31.3799 2.94677 29.5265 3.52671C17.5904 7.25732 8.93652 18.3209 8.93652 31.5676C8.93652 32.7972 9.01145 34.0073 9.15572 35.1951C10.5375 46.543 18.3062 55.8835 28.7413 59.5109C29.0853 59.6336 29.4349 59.7479 29.7873 59.8511C32.5175 60.6903 35.4141 61.1392 38.4161 61.1392C41.4182 61.1392 44.2677 60.6959 46.9784 59.8706C47.3558 59.7591 47.7275 59.6392 48.0938 59.5081C58.2348 55.9811 65.8592 47.0588 67.5462 36.143C67.7792 34.6514 67.8985 33.1206 67.8985 31.562C67.8985 18.3404 59.278 7.29356 47.3752 3.54344M55.7904 34.8493C54.2616 43.0912 47.0672 49.334 38.4161 49.334C29.7651 49.334 22.5735 43.0912 21.0447 34.8493C20.8449 33.7898 20.7422 32.6913 20.7422 31.5732C20.7422 21.7615 28.6525 13.8124 38.4134 13.8124C48.1742 13.8124 56.0873 21.7615 56.0873 31.5732C56.0873 32.6913 55.9846 33.7898 55.7849 34.8493" stroke="#6E39EE" stroke-width="4"/>
<path d="M67.2882 83.8616C62.6591 78.4644 56.549 74.3734 49.5831 72.1845C47.1574 71.4186 44.6262 70.8867 42.0171 70.6165C40.6473 70.4662 39.2469 70.3882 37.8381 70.3882C36.4294 70.3882 35.0985 70.4634 33.7564 70.6054C31.1418 70.8728 28.6161 71.3963 26.1821 72.1566C19.1773 74.34 13.0367 78.4421 8.39092 83.8616C5.78463 86.8971 3.65069 90.3449 2.0947 94.1017C1.75571 94.9205 2.36978 95.8228 3.25336 95.8228H14.9928C15.429 95.8228 15.8291 95.5916 16.0598 95.2185C19.5357 89.6347 25.0929 85.4852 31.6447 83.8616C33.6286 83.3687 35.7014 83.1069 37.8381 83.1069C39.9749 83.1069 42.0505 83.3687 44.0344 83.8616C50.5862 85.4852 56.1433 89.6347 59.6221 95.2185C59.8527 95.5888 60.2528 95.82 60.6891 95.82H72.4257C73.3121 95.82 73.9234 94.9177 73.5844 94.0989C72.0284 90.3421 69.8944 86.8944 67.2882 83.8588" fill="#121065"/>
<path d="M67.2882 83.8616C62.6591 78.4644 56.549 74.3734 49.5831 72.1845C47.1574 71.4186 44.6262 70.8867 42.0171 70.6165C40.6473 70.4662 39.2469 70.3882 37.8381 70.3882C36.4294 70.3882 35.0985 70.4634 33.7564 70.6054C31.1418 70.8728 28.6161 71.3963 26.1821 72.1566C19.1773 74.34 13.0367 78.4421 8.39092 83.8616C5.78463 86.8971 3.65069 90.3449 2.0947 94.1017C1.75571 94.9205 2.36978 95.8228 3.25336 95.8228H14.9928C15.429 95.8228 15.8291 95.5916 16.0598 95.2185C19.5357 89.6347 25.0929 85.4852 31.6447 83.8616C33.6286 83.3687 35.7014 83.1069 37.8381 83.1069C39.9749 83.1069 42.0505 83.3687 44.0344 83.8616C50.5862 85.4852 56.1433 89.6347 59.6221 95.2185C59.8527 95.5888 60.2528 95.82 60.6891 95.82H72.4257C73.3121 95.82 73.9234 94.9177 73.5844 94.0989C72.0284 90.3421 69.8944 86.8944 67.2882 83.8588" stroke="#121065" stroke-width="4"/>
</svg>
